<mxfile host="app.diagrams.net" agent="Mozilla/5.0 (Macintosh; Intel Mac OS X 10_15_7) AppleWebKit/537.36 (KHTML, like Gecko) Chrome/136.0.0.0 Safari/537.36" version="27.1.3">
  <diagram name="Page-1" id="WHWEttcTDqorawWi-thl">
    <mxGraphModel dx="1289" dy="287" grid="1" gridSize="10" guides="1" tooltips="1" connect="1" arrows="1" fold="1" page="1" pageScale="1" pageWidth="850" pageHeight="1100" math="0" shadow="0">
      <root>
        <mxCell id="0" />
        <mxCell id="1" parent="0" />
        <mxCell id="CtdDcEWlySGF2xL_cZ8v-1" value="" style="rounded=0;whiteSpace=wrap;html=1;" vertex="1" parent="1">
          <mxGeometry x="335" y="348" width="245" height="432" as="geometry" />
        </mxCell>
        <mxCell id="CtdDcEWlySGF2xL_cZ8v-3" value="&lt;pre style=&quot;padding-left: 15px;&quot;&gt;&lt;font&gt;GPIO 0&lt;/font&gt;&lt;/pre&gt;" style="ellipse;whiteSpace=wrap;html=1;aspect=fixed;align=left;" vertex="1" parent="1">
          <mxGeometry x="350" y="370" width="10" height="10" as="geometry" />
        </mxCell>
        <mxCell id="CtdDcEWlySGF2xL_cZ8v-4" value="&lt;pre style=&quot;padding-left: 15px;&quot;&gt;&lt;font&gt;GPIO 1&lt;/font&gt;&lt;/pre&gt;" style="ellipse;whiteSpace=wrap;html=1;aspect=fixed;align=left;" vertex="1" parent="1">
          <mxGeometry x="350" y="390" width="10" height="10" as="geometry" />
        </mxCell>
        <mxCell id="CtdDcEWlySGF2xL_cZ8v-5" value="&lt;pre style=&quot;padding-left: 15px;&quot;&gt;&lt;font&gt;GND&lt;/font&gt;&lt;/pre&gt;" style="ellipse;whiteSpace=wrap;html=1;aspect=fixed;align=left;" vertex="1" parent="1">
          <mxGeometry x="350" y="410" width="10" height="10" as="geometry" />
        </mxCell>
        <mxCell id="CtdDcEWlySGF2xL_cZ8v-6" value="&lt;pre style=&quot;padding-left: 15px;&quot;&gt;&lt;font&gt;GPIO 2&lt;/font&gt;&lt;/pre&gt;" style="ellipse;whiteSpace=wrap;html=1;aspect=fixed;align=left;" vertex="1" parent="1">
          <mxGeometry x="350" y="430" width="10" height="10" as="geometry" />
        </mxCell>
        <mxCell id="CtdDcEWlySGF2xL_cZ8v-7" value="&lt;pre style=&quot;padding-left: 15px;&quot;&gt;&lt;font&gt;GPIO 3&lt;/font&gt;&lt;/pre&gt;" style="ellipse;whiteSpace=wrap;html=1;aspect=fixed;align=left;" vertex="1" parent="1">
          <mxGeometry x="350" y="450" width="10" height="10" as="geometry" />
        </mxCell>
        <mxCell id="CtdDcEWlySGF2xL_cZ8v-8" value="&lt;pre style=&quot;padding-left: 15px;&quot;&gt;&lt;font&gt;GPIO 4&lt;/font&gt;&lt;/pre&gt;" style="ellipse;whiteSpace=wrap;html=1;aspect=fixed;align=left;" vertex="1" parent="1">
          <mxGeometry x="350" y="470" width="10" height="10" as="geometry" />
        </mxCell>
        <mxCell id="CtdDcEWlySGF2xL_cZ8v-9" value="&lt;pre style=&quot;padding-left: 15px;&quot;&gt;&lt;font&gt;GPIO 5&lt;/font&gt;&lt;/pre&gt;" style="ellipse;whiteSpace=wrap;html=1;aspect=fixed;align=left;" vertex="1" parent="1">
          <mxGeometry x="350" y="490" width="10" height="10" as="geometry" />
        </mxCell>
        <mxCell id="CtdDcEWlySGF2xL_cZ8v-13" value="&lt;pre style=&quot;padding-left: 0px; padding-right: 15px;&quot;&gt;&lt;font&gt;VBUS&lt;/font&gt;&lt;/pre&gt;" style="ellipse;whiteSpace=wrap;html=1;aspect=fixed;align=right;" vertex="1" parent="1">
          <mxGeometry x="550" y="370" width="10" height="10" as="geometry" />
        </mxCell>
        <mxCell id="CtdDcEWlySGF2xL_cZ8v-14" value="&lt;pre style=&quot;padding-left: 0px; padding-right: 15px;&quot;&gt;&lt;font&gt;VSYS&lt;/font&gt;&lt;/pre&gt;" style="ellipse;whiteSpace=wrap;html=1;aspect=fixed;align=right;" vertex="1" parent="1">
          <mxGeometry x="550" y="390" width="10" height="10" as="geometry" />
        </mxCell>
        <mxCell id="CtdDcEWlySGF2xL_cZ8v-16" value="&lt;pre style=&quot;padding-left: 0px; padding-right: 15px;&quot;&gt;&lt;font&gt;GND&lt;/font&gt;&lt;/pre&gt;" style="ellipse;whiteSpace=wrap;html=1;aspect=fixed;align=right;" vertex="1" parent="1">
          <mxGeometry x="550" y="410" width="10" height="10" as="geometry" />
        </mxCell>
        <mxCell id="CtdDcEWlySGF2xL_cZ8v-17" value="&lt;pre style=&quot;padding-left: 0px; padding-right: 15px;&quot;&gt;&lt;font&gt;3V3(OUT)&lt;/font&gt;&lt;/pre&gt;" style="ellipse;whiteSpace=wrap;html=1;aspect=fixed;align=right;" vertex="1" parent="1">
          <mxGeometry x="550" y="450" width="10" height="10" as="geometry" />
        </mxCell>
        <mxCell id="CtdDcEWlySGF2xL_cZ8v-18" value="&lt;pre style=&quot;padding-left: 0px; padding-right: 15px;&quot;&gt;&lt;font&gt;3V3_EN&lt;/font&gt;&lt;/pre&gt;" style="ellipse;whiteSpace=wrap;html=1;aspect=fixed;align=right;" vertex="1" parent="1">
          <mxGeometry x="550" y="430" width="10" height="10" as="geometry" />
        </mxCell>
        <mxCell id="CtdDcEWlySGF2xL_cZ8v-22" value="&lt;pre style=&quot;padding-left: 15px;&quot;&gt;&lt;font&gt;GND&lt;/font&gt;&lt;/pre&gt;" style="ellipse;whiteSpace=wrap;html=1;aspect=fixed;align=left;" vertex="1" parent="1">
          <mxGeometry x="350" y="510" width="10" height="10" as="geometry" />
        </mxCell>
        <mxCell id="CtdDcEWlySGF2xL_cZ8v-23" value="&lt;pre style=&quot;padding-left: 15px;&quot;&gt;&lt;font&gt;GPIO 6&lt;/font&gt;&lt;/pre&gt;" style="ellipse;whiteSpace=wrap;html=1;aspect=fixed;align=left;" vertex="1" parent="1">
          <mxGeometry x="350" y="530" width="10" height="10" as="geometry" />
        </mxCell>
        <mxCell id="CtdDcEWlySGF2xL_cZ8v-24" value="&lt;pre style=&quot;padding-left: 15px;&quot;&gt;&lt;font&gt;GPIO 7&lt;/font&gt;&lt;/pre&gt;" style="ellipse;whiteSpace=wrap;html=1;aspect=fixed;align=left;" vertex="1" parent="1">
          <mxGeometry x="350" y="550" width="10" height="10" as="geometry" />
        </mxCell>
        <mxCell id="CtdDcEWlySGF2xL_cZ8v-25" value="&lt;pre style=&quot;padding-left: 15px;&quot;&gt;&lt;font&gt;GPIO 8&lt;/font&gt;&lt;/pre&gt;" style="ellipse;whiteSpace=wrap;html=1;aspect=fixed;align=left;" vertex="1" parent="1">
          <mxGeometry x="350" y="570" width="10" height="10" as="geometry" />
        </mxCell>
        <mxCell id="CtdDcEWlySGF2xL_cZ8v-26" value="&lt;pre style=&quot;padding-left: 15px;&quot;&gt;&lt;font&gt;GPIO 9&lt;/font&gt;&lt;/pre&gt;" style="ellipse;whiteSpace=wrap;html=1;aspect=fixed;align=left;" vertex="1" parent="1">
          <mxGeometry x="350" y="590" width="10" height="10" as="geometry" />
        </mxCell>
        <mxCell id="CtdDcEWlySGF2xL_cZ8v-27" value="&lt;pre style=&quot;padding-left: 15px;&quot;&gt;&lt;font&gt;GND&lt;/font&gt;&lt;/pre&gt;" style="ellipse;whiteSpace=wrap;html=1;aspect=fixed;align=left;" vertex="1" parent="1">
          <mxGeometry x="350" y="610" width="10" height="10" as="geometry" />
        </mxCell>
        <mxCell id="CtdDcEWlySGF2xL_cZ8v-28" value="&lt;pre style=&quot;padding-left: 15px;&quot;&gt;&lt;font&gt;GPIO 10&lt;/font&gt;&lt;/pre&gt;" style="ellipse;whiteSpace=wrap;html=1;aspect=fixed;align=left;" vertex="1" parent="1">
          <mxGeometry x="350" y="630" width="10" height="10" as="geometry" />
        </mxCell>
        <mxCell id="CtdDcEWlySGF2xL_cZ8v-29" value="&lt;pre style=&quot;padding-left: 15px;&quot;&gt;&lt;font&gt;GPIO 15&lt;/font&gt;&lt;/pre&gt;" style="ellipse;whiteSpace=wrap;html=1;aspect=fixed;align=left;" vertex="1" parent="1">
          <mxGeometry x="350" y="750" width="10" height="10" as="geometry" />
        </mxCell>
        <mxCell id="CtdDcEWlySGF2xL_cZ8v-30" value="&lt;pre style=&quot;padding-left: 15px;&quot;&gt;&lt;font&gt;GPIO 14&lt;/font&gt;&lt;/pre&gt;" style="ellipse;whiteSpace=wrap;html=1;aspect=fixed;align=left;" vertex="1" parent="1">
          <mxGeometry x="350" y="730" width="10" height="10" as="geometry" />
        </mxCell>
        <mxCell id="CtdDcEWlySGF2xL_cZ8v-31" value="&lt;pre style=&quot;padding-left: 15px;&quot;&gt;&lt;font&gt;GND&lt;/font&gt;&lt;/pre&gt;" style="ellipse;whiteSpace=wrap;html=1;aspect=fixed;align=left;" vertex="1" parent="1">
          <mxGeometry x="350" y="710" width="10" height="10" as="geometry" />
        </mxCell>
        <mxCell id="CtdDcEWlySGF2xL_cZ8v-32" value="&lt;pre style=&quot;padding-left: 15px;&quot;&gt;&lt;font&gt;GPIO 13&lt;/font&gt;&lt;/pre&gt;" style="ellipse;whiteSpace=wrap;html=1;aspect=fixed;align=left;" vertex="1" parent="1">
          <mxGeometry x="350" y="690" width="10" height="10" as="geometry" />
        </mxCell>
        <mxCell id="CtdDcEWlySGF2xL_cZ8v-33" value="&lt;pre style=&quot;padding-left: 15px;&quot;&gt;&lt;font&gt;GPIO 12&lt;/font&gt;&lt;/pre&gt;" style="ellipse;whiteSpace=wrap;html=1;aspect=fixed;align=left;" vertex="1" parent="1">
          <mxGeometry x="350" y="670" width="10" height="10" as="geometry" />
        </mxCell>
        <mxCell id="CtdDcEWlySGF2xL_cZ8v-34" value="&lt;pre style=&quot;padding-left: 15px;&quot;&gt;&lt;font&gt;GPIO 11&lt;/font&gt;&lt;/pre&gt;" style="ellipse;whiteSpace=wrap;html=1;aspect=fixed;align=left;" vertex="1" parent="1">
          <mxGeometry x="350" y="650" width="10" height="10" as="geometry" />
        </mxCell>
        <mxCell id="CtdDcEWlySGF2xL_cZ8v-37" value="&lt;pre style=&quot;padding-left: 0px; padding-right: 15px;&quot;&gt;&lt;font&gt;ADC_VREF&lt;/font&gt;&lt;/pre&gt;" style="ellipse;whiteSpace=wrap;html=1;aspect=fixed;align=right;" vertex="1" parent="1">
          <mxGeometry x="550" y="470" width="10" height="10" as="geometry" />
        </mxCell>
        <mxCell id="CtdDcEWlySGF2xL_cZ8v-38" value="&lt;pre style=&quot;padding-left: 0px; padding-right: 15px;&quot;&gt;&lt;font&gt;GPIO 28&lt;/font&gt;&lt;/pre&gt;" style="ellipse;whiteSpace=wrap;html=1;aspect=fixed;align=right;" vertex="1" parent="1">
          <mxGeometry x="550" y="490" width="10" height="10" as="geometry" />
        </mxCell>
        <mxCell id="CtdDcEWlySGF2xL_cZ8v-39" value="&lt;pre style=&quot;padding-left: 0px; padding-right: 15px;&quot;&gt;&lt;font&gt;GND&lt;/font&gt;&lt;/pre&gt;" style="ellipse;whiteSpace=wrap;html=1;aspect=fixed;align=right;" vertex="1" parent="1">
          <mxGeometry x="550" y="510" width="10" height="10" as="geometry" />
        </mxCell>
        <mxCell id="CtdDcEWlySGF2xL_cZ8v-40" value="&lt;pre style=&quot;padding-left: 0px; padding-right: 15px;&quot;&gt;&lt;font&gt;GND&lt;/font&gt;&lt;/pre&gt;" style="ellipse;whiteSpace=wrap;html=1;aspect=fixed;align=right;" vertex="1" parent="1">
          <mxGeometry x="550" y="610" width="10" height="10" as="geometry" />
        </mxCell>
        <mxCell id="CtdDcEWlySGF2xL_cZ8v-41" value="&lt;pre style=&quot;padding-left: 0px; padding-right: 15px;&quot;&gt;&lt;font&gt;GPIO 22&lt;/font&gt;&lt;/pre&gt;" style="ellipse;whiteSpace=wrap;html=1;aspect=fixed;align=right;" vertex="1" parent="1">
          <mxGeometry x="550" y="590" width="10" height="10" as="geometry" />
        </mxCell>
        <mxCell id="CtdDcEWlySGF2xL_cZ8v-42" value="&lt;pre style=&quot;padding-left: 0px; padding-right: 15px;&quot;&gt;&lt;font&gt;RUN&lt;/font&gt;&lt;/pre&gt;" style="ellipse;whiteSpace=wrap;html=1;aspect=fixed;align=right;" vertex="1" parent="1">
          <mxGeometry x="550" y="570" width="10" height="10" as="geometry" />
        </mxCell>
        <mxCell id="CtdDcEWlySGF2xL_cZ8v-43" value="&lt;pre style=&quot;padding-left: 0px; padding-right: 15px;&quot;&gt;&lt;font&gt;GPIO 26&lt;/font&gt;&lt;/pre&gt;" style="ellipse;whiteSpace=wrap;html=1;aspect=fixed;align=right;" vertex="1" parent="1">
          <mxGeometry x="550" y="550" width="10" height="10" as="geometry" />
        </mxCell>
        <mxCell id="CtdDcEWlySGF2xL_cZ8v-44" value="&lt;pre style=&quot;padding-left: 0px; padding-right: 15px;&quot;&gt;&lt;font&gt;GPIO 27&lt;/font&gt;&lt;/pre&gt;" style="ellipse;whiteSpace=wrap;html=1;aspect=fixed;align=right;" vertex="1" parent="1">
          <mxGeometry x="550" y="530" width="10" height="10" as="geometry" />
        </mxCell>
        <mxCell id="CtdDcEWlySGF2xL_cZ8v-46" value="&lt;pre style=&quot;padding-left: 0px; padding-right: 15px;&quot;&gt;&lt;font&gt;GND&lt;/font&gt;&lt;/pre&gt;" style="ellipse;whiteSpace=wrap;html=1;aspect=fixed;align=right;" vertex="1" parent="1">
          <mxGeometry x="550" y="710" width="10" height="10" as="geometry" />
        </mxCell>
        <mxCell id="CtdDcEWlySGF2xL_cZ8v-48" value="&lt;pre style=&quot;padding-left: 0px; padding-right: 15px;&quot;&gt;&lt;font&gt;GPIO 20&lt;/font&gt;&lt;/pre&gt;" style="ellipse;whiteSpace=wrap;html=1;aspect=fixed;align=right;" vertex="1" parent="1">
          <mxGeometry x="550" y="650" width="10" height="10" as="geometry" />
        </mxCell>
        <mxCell id="CtdDcEWlySGF2xL_cZ8v-49" value="&lt;pre style=&quot;padding-left: 0px; padding-right: 15px;&quot;&gt;&lt;font&gt;GPIO 19&lt;/font&gt;&lt;/pre&gt;" style="ellipse;whiteSpace=wrap;html=1;aspect=fixed;align=right;" vertex="1" parent="1">
          <mxGeometry x="550" y="670" width="10" height="10" as="geometry" />
        </mxCell>
        <mxCell id="CtdDcEWlySGF2xL_cZ8v-50" value="&lt;pre style=&quot;padding-left: 0px; padding-right: 15px;&quot;&gt;&lt;font&gt;GPIO 21&lt;/font&gt;&lt;/pre&gt;" style="ellipse;whiteSpace=wrap;html=1;aspect=fixed;align=right;" vertex="1" parent="1">
          <mxGeometry x="550" y="630" width="10" height="10" as="geometry" />
        </mxCell>
        <mxCell id="CtdDcEWlySGF2xL_cZ8v-54" value="&lt;pre style=&quot;padding-left: 0px; padding-right: 15px;&quot;&gt;&lt;font&gt;GPIO 18&lt;/font&gt;&lt;/pre&gt;" style="ellipse;whiteSpace=wrap;html=1;aspect=fixed;align=right;" vertex="1" parent="1">
          <mxGeometry x="550" y="690" width="10" height="10" as="geometry" />
        </mxCell>
        <mxCell id="CtdDcEWlySGF2xL_cZ8v-56" value="&lt;pre style=&quot;padding-left: 0px; padding-right: 15px;&quot;&gt;&lt;font&gt;GPIO 16&lt;/font&gt;&lt;/pre&gt;" style="ellipse;whiteSpace=wrap;html=1;aspect=fixed;align=right;" vertex="1" parent="1">
          <mxGeometry x="550" y="750" width="10" height="10" as="geometry" />
        </mxCell>
        <mxCell id="CtdDcEWlySGF2xL_cZ8v-57" value="&lt;pre style=&quot;padding-left: 0px; padding-right: 15px;&quot;&gt;&lt;font&gt;GPIO 17&lt;/font&gt;&lt;/pre&gt;" style="ellipse;whiteSpace=wrap;html=1;aspect=fixed;align=right;" vertex="1" parent="1">
          <mxGeometry x="550" y="730" width="10" height="10" as="geometry" />
        </mxCell>
        <mxCell id="CtdDcEWlySGF2xL_cZ8v-58" value="USB" style="rounded=1;whiteSpace=wrap;html=1;" vertex="1" parent="1">
          <mxGeometry x="412.5" y="310" width="90" height="60" as="geometry" />
        </mxCell>
        <mxCell id="CtdDcEWlySGF2xL_cZ8v-73" value="" style="group" vertex="1" connectable="0" parent="1">
          <mxGeometry x="750" y="410" width="190" height="125" as="geometry" />
        </mxCell>
        <mxCell id="CtdDcEWlySGF2xL_cZ8v-59" value="&lt;div style=&quot;margin-top: 0px; margin-bottom: 50px;&quot;&gt;&lt;br&gt;&lt;/div&gt;" style="rounded=1;whiteSpace=wrap;html=1;" vertex="1" parent="CtdDcEWlySGF2xL_cZ8v-73">
          <mxGeometry width="190" height="125" as="geometry" />
        </mxCell>
        <mxCell id="CtdDcEWlySGF2xL_cZ8v-60" value="&lt;pre style=&quot;padding-left: 15px;&quot;&gt;&lt;font&gt;VIN&lt;/font&gt;&lt;/pre&gt;" style="ellipse;whiteSpace=wrap;html=1;aspect=fixed;align=left;rotation=-90;" vertex="1" parent="CtdDcEWlySGF2xL_cZ8v-73">
          <mxGeometry x="30" y="105" width="10" height="10" as="geometry" />
        </mxCell>
        <mxCell id="CtdDcEWlySGF2xL_cZ8v-62" value="&lt;pre style=&quot;padding-left: 15px;&quot;&gt;&lt;font&gt;3Vo&lt;/font&gt;&lt;/pre&gt;" style="ellipse;whiteSpace=wrap;html=1;aspect=fixed;align=left;rotation=-90;" vertex="1" parent="CtdDcEWlySGF2xL_cZ8v-73">
          <mxGeometry x="50" y="105" width="10" height="10" as="geometry" />
        </mxCell>
        <mxCell id="CtdDcEWlySGF2xL_cZ8v-63" value="&lt;pre style=&quot;padding-left: 15px;&quot;&gt;&lt;font&gt;SCK&lt;/font&gt;&lt;/pre&gt;" style="ellipse;whiteSpace=wrap;html=1;aspect=fixed;align=left;rotation=-90;" vertex="1" parent="CtdDcEWlySGF2xL_cZ8v-73">
          <mxGeometry x="90" y="105" width="10" height="10" as="geometry" />
        </mxCell>
        <mxCell id="CtdDcEWlySGF2xL_cZ8v-64" value="&lt;pre style=&quot;padding-left: 15px;&quot;&gt;&lt;font&gt;GND&lt;/font&gt;&lt;/pre&gt;" style="ellipse;whiteSpace=wrap;html=1;aspect=fixed;align=left;rotation=-90;" vertex="1" parent="CtdDcEWlySGF2xL_cZ8v-73">
          <mxGeometry x="70" y="105" width="10" height="10" as="geometry" />
        </mxCell>
        <mxCell id="CtdDcEWlySGF2xL_cZ8v-68" value="&lt;pre style=&quot;padding-left: 15px;&quot;&gt;&lt;font&gt;CS&lt;/font&gt;&lt;/pre&gt;" style="ellipse;whiteSpace=wrap;html=1;aspect=fixed;align=left;rotation=-90;" vertex="1" parent="CtdDcEWlySGF2xL_cZ8v-73">
          <mxGeometry x="150" y="105" width="10" height="10" as="geometry" />
        </mxCell>
        <mxCell id="CtdDcEWlySGF2xL_cZ8v-69" value="&lt;pre style=&quot;padding-left: 15px;&quot;&gt;&lt;font&gt;SDI&lt;/font&gt;&lt;/pre&gt;" style="ellipse;whiteSpace=wrap;html=1;aspect=fixed;align=left;rotation=-90;" vertex="1" parent="CtdDcEWlySGF2xL_cZ8v-73">
          <mxGeometry x="130" y="105" width="10" height="10" as="geometry" />
        </mxCell>
        <mxCell id="CtdDcEWlySGF2xL_cZ8v-70" value="&lt;pre style=&quot;padding-left: 15px;&quot;&gt;&lt;font&gt;SDO&lt;/font&gt;&lt;/pre&gt;" style="ellipse;whiteSpace=wrap;html=1;aspect=fixed;align=left;rotation=-90;" vertex="1" parent="CtdDcEWlySGF2xL_cZ8v-73">
          <mxGeometry x="110" y="105" width="10" height="10" as="geometry" />
        </mxCell>
        <mxCell id="CtdDcEWlySGF2xL_cZ8v-74" style="edgeStyle=orthogonalEdgeStyle;rounded=0;orthogonalLoop=1;jettySize=auto;html=1;exitX=0;exitY=0.5;exitDx=0;exitDy=0;entryX=1;entryY=0.5;entryDx=0;entryDy=0;endArrow=none;startFill=0;fillColor=#e51400;strokeColor=#B20000;strokeWidth=2;" edge="1" parent="1" source="CtdDcEWlySGF2xL_cZ8v-60" target="CtdDcEWlySGF2xL_cZ8v-17">
          <mxGeometry relative="1" as="geometry">
            <Array as="points">
              <mxPoint x="785" y="545" />
              <mxPoint x="620" y="545" />
              <mxPoint x="620" y="455" />
            </Array>
          </mxGeometry>
        </mxCell>
        <mxCell id="CtdDcEWlySGF2xL_cZ8v-76" style="edgeStyle=orthogonalEdgeStyle;rounded=0;orthogonalLoop=1;jettySize=auto;html=1;exitX=0;exitY=0.5;exitDx=0;exitDy=0;entryX=0;entryY=0.5;entryDx=0;entryDy=0;strokeWidth=2;endArrow=none;startFill=0;" edge="1" parent="1" source="CtdDcEWlySGF2xL_cZ8v-64" target="CtdDcEWlySGF2xL_cZ8v-5">
          <mxGeometry relative="1" as="geometry">
            <Array as="points">
              <mxPoint x="825" y="580" />
              <mxPoint x="650" y="580" />
              <mxPoint x="650" y="220" />
              <mxPoint x="290" y="220" />
              <mxPoint x="290" y="415" />
            </Array>
          </mxGeometry>
        </mxCell>
        <mxCell id="CtdDcEWlySGF2xL_cZ8v-79" style="edgeStyle=orthogonalEdgeStyle;rounded=0;orthogonalLoop=1;jettySize=auto;html=1;exitX=0;exitY=0.5;exitDx=0;exitDy=0;entryX=0;entryY=0.5;entryDx=0;entryDy=0;endArrow=none;startFill=0;strokeWidth=2;fillColor=#d5e8d4;strokeColor=#82b366;" edge="1" parent="1" source="CtdDcEWlySGF2xL_cZ8v-63" target="CtdDcEWlySGF2xL_cZ8v-9">
          <mxGeometry relative="1" as="geometry">
            <Array as="points">
              <mxPoint x="845" y="620" />
              <mxPoint x="680" y="620" />
              <mxPoint x="680" y="180" />
              <mxPoint x="250" y="180" />
              <mxPoint x="250" y="495" />
            </Array>
          </mxGeometry>
        </mxCell>
        <mxCell id="CtdDcEWlySGF2xL_cZ8v-80" style="edgeStyle=orthogonalEdgeStyle;rounded=0;orthogonalLoop=1;jettySize=auto;html=1;exitX=0;exitY=0.5;exitDx=0;exitDy=0;entryX=0;entryY=0.5;entryDx=0;entryDy=0;strokeWidth=2;endArrow=none;startFill=0;fillColor=#dae8fc;strokeColor=#6c8ebf;" edge="1" parent="1" source="CtdDcEWlySGF2xL_cZ8v-69" target="CtdDcEWlySGF2xL_cZ8v-8">
          <mxGeometry relative="1" as="geometry">
            <Array as="points">
              <mxPoint x="885" y="600" />
              <mxPoint x="710" y="600" />
              <mxPoint x="710" y="200" />
              <mxPoint x="270" y="200" />
              <mxPoint x="270" y="475" />
            </Array>
          </mxGeometry>
        </mxCell>
        <mxCell id="CtdDcEWlySGF2xL_cZ8v-81" value="" style="rounded=1;whiteSpace=wrap;html=1;" vertex="1" parent="1">
          <mxGeometry x="-410" y="360" width="470" height="120" as="geometry" />
        </mxCell>
        <mxCell id="CtdDcEWlySGF2xL_cZ8v-82" value="" style="rounded=0;whiteSpace=wrap;html=1;fillColor=none;opacity=20;glass=0;shadow=0;" vertex="1" parent="1">
          <mxGeometry x="-105" y="400" width="150" height="40" as="geometry" />
        </mxCell>
        <mxCell id="CtdDcEWlySGF2xL_cZ8v-95" style="edgeStyle=orthogonalEdgeStyle;rounded=0;orthogonalLoop=1;jettySize=auto;html=1;exitX=0;exitY=0.5;exitDx=0;exitDy=0;entryX=1;entryY=0.5;entryDx=0;entryDy=0;endArrow=none;startFill=0;strokeWidth=3;fillColor=#a20025;strokeColor=#6F0000;" edge="1" parent="1" source="CtdDcEWlySGF2xL_cZ8v-83" target="CtdDcEWlySGF2xL_cZ8v-14">
          <mxGeometry relative="1" as="geometry">
            <Array as="points">
              <mxPoint x="-90" y="590" />
              <mxPoint x="220" y="590" />
              <mxPoint x="220" y="270" />
              <mxPoint x="620" y="270" />
              <mxPoint x="620" y="395" />
            </Array>
          </mxGeometry>
        </mxCell>
        <mxCell id="CtdDcEWlySGF2xL_cZ8v-83" value="&lt;pre style=&quot;padding-left: 15px;&quot;&gt;&lt;font&gt;VDD&lt;/font&gt;&lt;/pre&gt;" style="ellipse;whiteSpace=wrap;html=1;aspect=fixed;align=left;rotation=-90;" vertex="1" parent="1">
          <mxGeometry x="-95" y="415" width="10" height="10" as="geometry" />
        </mxCell>
        <mxCell id="CtdDcEWlySGF2xL_cZ8v-96" style="edgeStyle=orthogonalEdgeStyle;rounded=0;orthogonalLoop=1;jettySize=auto;html=1;exitX=0;exitY=0.5;exitDx=0;exitDy=0;entryX=0;entryY=0.5;entryDx=0;entryDy=0;endArrow=none;startFill=0;strokeWidth=3;fillColor=#1ba1e2;strokeColor=#006EAF;" edge="1" parent="1" source="CtdDcEWlySGF2xL_cZ8v-84" target="CtdDcEWlySGF2xL_cZ8v-8">
          <mxGeometry relative="1" as="geometry">
            <Array as="points">
              <mxPoint x="-60" y="570" />
              <mxPoint x="270" y="570" />
              <mxPoint x="270" y="475" />
            </Array>
          </mxGeometry>
        </mxCell>
        <mxCell id="CtdDcEWlySGF2xL_cZ8v-84" value="&lt;div style=&quot;line-height: 10%;&quot;&gt;&lt;pre style=&quot;padding-left: 15px;&quot;&gt;&lt;font&gt;RX (UART)&lt;/font&gt;&lt;/pre&gt;&lt;pre style=&quot;padding-left: 15px;&quot;&gt;&lt;font&gt;SDA (I2C)&lt;/font&gt;&lt;/pre&gt;&lt;/div&gt;" style="ellipse;whiteSpace=wrap;html=1;aspect=fixed;align=left;rotation=-90;" vertex="1" parent="1">
          <mxGeometry x="-65" y="415" width="10" height="10" as="geometry" />
        </mxCell>
        <mxCell id="CtdDcEWlySGF2xL_cZ8v-97" style="edgeStyle=orthogonalEdgeStyle;rounded=0;orthogonalLoop=1;jettySize=auto;html=1;exitX=0;exitY=0.5;exitDx=0;exitDy=0;entryX=0;entryY=0.5;entryDx=0;entryDy=0;endArrow=none;startFill=0;strokeWidth=3;fillColor=#d5e8d4;strokeColor=#82b366;" edge="1" parent="1" source="CtdDcEWlySGF2xL_cZ8v-85" target="CtdDcEWlySGF2xL_cZ8v-9">
          <mxGeometry relative="1" as="geometry">
            <Array as="points">
              <mxPoint x="-30" y="550" />
              <mxPoint x="250" y="550" />
              <mxPoint x="250" y="495" />
            </Array>
          </mxGeometry>
        </mxCell>
        <mxCell id="CtdDcEWlySGF2xL_cZ8v-85" value="&lt;div style=&quot;line-height: 10%;&quot;&gt;&lt;pre style=&quot;padding-left: 15px;&quot;&gt;TX (UART)&lt;/pre&gt;&lt;pre style=&quot;padding-left: 15px;&quot;&gt;SCL (I2C)&lt;/pre&gt;&lt;/div&gt;" style="ellipse;whiteSpace=wrap;html=1;aspect=fixed;align=left;rotation=-90;" vertex="1" parent="1">
          <mxGeometry x="-35" y="415" width="10" height="10" as="geometry" />
        </mxCell>
        <mxCell id="CtdDcEWlySGF2xL_cZ8v-98" style="edgeStyle=orthogonalEdgeStyle;rounded=0;orthogonalLoop=1;jettySize=auto;html=1;exitX=0;exitY=0.5;exitDx=0;exitDy=0;entryX=0;entryY=0.5;entryDx=0;entryDy=0;endArrow=none;startFill=0;strokeWidth=3;" edge="1" parent="1" source="CtdDcEWlySGF2xL_cZ8v-86" target="CtdDcEWlySGF2xL_cZ8v-27">
          <mxGeometry relative="1" as="geometry">
            <Array as="points">
              <mxPoint y="530" />
              <mxPoint x="290" y="530" />
              <mxPoint x="290" y="615" />
            </Array>
          </mxGeometry>
        </mxCell>
        <mxCell id="CtdDcEWlySGF2xL_cZ8v-86" value="&lt;div style=&quot;line-height: 10%;&quot;&gt;&lt;pre style=&quot;padding-left: 15px;&quot;&gt;SEL&lt;/pre&gt;&lt;/div&gt;" style="ellipse;whiteSpace=wrap;html=1;aspect=fixed;align=left;rotation=-90;" vertex="1" parent="1">
          <mxGeometry x="-5" y="415" width="10" height="10" as="geometry" />
        </mxCell>
        <mxCell id="CtdDcEWlySGF2xL_cZ8v-100" style="edgeStyle=orthogonalEdgeStyle;rounded=0;orthogonalLoop=1;jettySize=auto;html=1;exitX=0;exitY=0.5;exitDx=0;exitDy=0;strokeWidth=3;endArrow=none;startFill=0;" edge="1" parent="1" source="CtdDcEWlySGF2xL_cZ8v-87">
          <mxGeometry relative="1" as="geometry">
            <mxPoint x="29.73684210526335" y="530" as="targetPoint" />
          </mxGeometry>
        </mxCell>
        <mxCell id="CtdDcEWlySGF2xL_cZ8v-87" value="&lt;div style=&quot;line-height: 10%;&quot;&gt;&lt;pre style=&quot;padding-left: 15px;&quot;&gt;GND&lt;/pre&gt;&lt;/div&gt;" style="ellipse;whiteSpace=wrap;html=1;aspect=fixed;align=left;rotation=-90;" vertex="1" parent="1">
          <mxGeometry x="25" y="415" width="10" height="10" as="geometry" />
        </mxCell>
        <mxCell id="CtdDcEWlySGF2xL_cZ8v-88" value="&lt;b&gt;Note:&lt;/b&gt;&lt;div&gt;VDD must be 5v or readings will be erroneous.&lt;/div&gt;&lt;div&gt;&lt;br&gt;&lt;/div&gt;&lt;div&gt;SEL:&lt;/div&gt;&lt;div&gt;Leave floating to select UART.&lt;/div&gt;&lt;div&gt;Pull to GND to select I2C.&lt;/div&gt;" style="text;html=1;align=left;verticalAlign=middle;whiteSpace=wrap;rounded=0;" vertex="1" parent="1">
          <mxGeometry x="-370" y="370" width="210" height="100" as="geometry" />
        </mxCell>
        <mxCell id="CtdDcEWlySGF2xL_cZ8v-91" value="Sensirion SPS30" style="text;html=1;align=center;verticalAlign=middle;resizable=0;points=[];autosize=1;strokeColor=none;fillColor=none;fontStyle=1;fontSize=16;" vertex="1" parent="1">
          <mxGeometry x="-245" y="330" width="140" height="30" as="geometry" />
        </mxCell>
        <mxCell id="CtdDcEWlySGF2xL_cZ8v-92" value="Raspberry Pi Pico W" style="text;html=1;align=center;verticalAlign=middle;resizable=0;points=[];autosize=1;strokeColor=none;fillColor=none;fontStyle=1;fontSize=16;" vertex="1" parent="1">
          <mxGeometry x="372.5" y="780" width="170" height="30" as="geometry" />
        </mxCell>
        <mxCell id="CtdDcEWlySGF2xL_cZ8v-94" value="BME 688" style="text;html=1;align=center;verticalAlign=middle;resizable=0;points=[];autosize=1;strokeColor=none;fillColor=none;fontStyle=1;fontSize=16;" vertex="1" parent="1">
          <mxGeometry x="800" y="380" width="90" height="30" as="geometry" />
        </mxCell>
      </root>
    </mxGraphModel>
  </diagram>
</mxfile>
